<svg width="1735" height="558" viewBox="0 0 1735 558" fill="none" xmlns="http://www.w3.org/2000/svg">
<path d="M148.549 217.543C104.778 217.543 31.862 271.372 3 297.224V557.512H1731V97.4916C1727.81 77.66 1711.56 37.997 1672.04 37.997C1622.63 37.997 1586.51 116.615 1540.83 116.615C1495.15 116.615 1461.68 7.18726 1415.47 7.18726C1369.25 7.18726 1329.94 166.548 1290.1 166.548C1250.26 166.548 1204.58 71.4627 1159.43 71.4627C1114.27 71.4627 1093.03 207.982 1040.44 207.982C987.848 207.982 954.383 126.708 902.325 126.708C850.267 126.708 832.206 207.982 779.617 207.982C727.028 207.982 696.75 99.6164 651.598 99.6164C606.445 99.6164 563.418 257.383 524.109 257.383C484.8 257.383 446.022 162.298 398.745 162.298C351.468 162.298 320.128 299.88 273.382 299.88C226.636 299.88 203.263 217.543 148.549 217.543Z" fill="url(#paint0_linear_47_237)"/>
<path d="M3 294.036C31.862 268.185 104.778 214.356 148.549 214.356C203.263 214.356 226.636 296.692 273.382 296.692C320.128 296.692 351.468 159.111 398.745 159.111C446.022 159.111 484.8 254.196 524.109 254.196C563.418 254.196 606.445 96.4291 651.598 96.4291C696.75 96.4291 727.028 204.794 779.617 204.794C832.206 204.794 850.267 123.52 902.325 123.52C954.383 123.52 987.848 204.794 1040.44 204.794C1093.03 204.794 1114.27 68.2754 1159.43 68.2754C1204.58 68.2754 1250.26 163.361 1290.1 163.361C1329.94 163.361 1369.25 4 1415.47 4C1461.68 4 1495.15 113.428 1540.83 113.428C1586.51 113.428 1622.63 34.8097 1672.04 34.8097C1711.56 34.8097 1727.81 74.4728 1731 94.3043" stroke="url(#paint1_linear_47_237)" stroke-width="8"/>
<defs>
<linearGradient id="paint0_linear_47_237" x1="1731" y1="7.18726" x2="1731" y2="541.045" gradientUnits="userSpaceOnUse">
<stop stop-color="#FFD600"/>
<stop offset="1" stop-color="#FFE934" stop-opacity="0"/>
</linearGradient>
<linearGradient id="paint1_linear_47_237" x1="-682.073" y1="-5035.24" x2="1124.01" y2="-5248.78" gradientUnits="userSpaceOnUse">
<stop stop-color="#FFE934"/>
<stop offset="1" stop-color="#FFD600"/>
</linearGradient>
</defs>
</svg>
