<svg width="1600" height="572" viewBox="0 0 1600 572" fill="none" xmlns="http://www.w3.org/2000/svg">
<mask id="mask0_1_2" style="mask-type:alpha" maskUnits="userSpaceOnUse" x="0" y="0" width="1600" height="572">
<path d="M1600 0H0V572H1600V0Z" fill="#C4C4C4"/>
</mask>
<g mask="url(#mask0_1_2)">
<path d="M125.5 267C84.3 267 15.6667 317.667 -11.5 342V587H1615V154C1612 135.333 1596.7 98 1559.5 98C1513 98 1479 172 1436 172C1393 172 1361.5 69 1318 69C1274.5 69 1237.5 219 1200 219C1162.5 219 1119.5 129.5 1077 129.5C1034.5 129.5 1014.5 258 965 258C915.5 258 884 181.5 835 181.5C786 181.5 769 258 719.5 258C670 258 641.5 156 599 156C556.5 156 516 304.5 479 304.5C442 304.5 405.5 215 361 215C316.5 215 287 344.5 243 344.5C199 344.5 177 267 125.5 267Z" fill="url(#paint0_linear_1_2)"/>
<g filter="url(#filter0_d_1_2)">
<path d="M-11.5 339C15.6667 314.667 84.3 264 125.5 264C177 264 199 341.5 243 341.5C287 341.5 316.5 212 361 212C405.5 212 442 301.5 479 301.5C516 301.5 556.5 153 599 153C641.5 153 670 255 719.5 255C769 255 786 178.5 835 178.5C884 178.5 915.5 255 965 255C1014.5 255 1034.5 126.5 1077 126.5C1119.5 126.5 1162.5 216 1200 216C1237.5 216 1274.5 66 1318 66C1361.5 66 1393 169 1436 169C1479 169 1513 95 1559.5 95C1596.7 95 1612 132.333 1615 151" stroke="url(#paint1_linear_1_2)" stroke-width="8"/>
</g>
</g>
<defs>
<filter id="filter0_d_1_2" x="-52.1688" y="33" width="1713.12" height="363.5" filterUnits="userSpaceOnUse" color-interpolation-filters="sRGB">
<feFlood flood-opacity="0" result="BackgroundImageFix"/>
<feColorMatrix in="SourceAlpha" type="matrix" values="0 0 0 0 0 0 0 0 0 0 0 0 0 0 0 0 0 0 127 0" result="hardAlpha"/>
<feOffset dx="2" dy="11"/>
<feGaussianBlur stdDeviation="20"/>
<feColorMatrix type="matrix" values="0 0 0 0 0.654167 0 0 0 0 0.583272 0 0 0 0 0 0 0 0 0.49 0"/>
<feBlend mode="normal" in2="BackgroundImageFix" result="effect1_dropShadow_1_2"/>
<feBlend mode="normal" in="SourceGraphic" in2="effect1_dropShadow_1_2" result="shape"/>
</filter>
<linearGradient id="paint0_linear_1_2" x1="1615" y1="69" x2="1615" y2="571.5" gradientUnits="userSpaceOnUse">
<stop stop-color="#FFD600"/>
<stop offset="1" stop-color="#FFE934" stop-opacity="0"/>
</linearGradient>
<linearGradient id="paint1_linear_1_2" x1="-656.333" y1="-4677.24" x2="1043.67" y2="-4878.24" gradientUnits="userSpaceOnUse">
<stop stop-color="#FFE934"/>
<stop offset="1" stop-color="#FFD600"/>
</linearGradient>
</defs>
</svg>
